<mxfile host="app.diagrams.net" modified="2020-10-22T05:45:36.565Z" agent="5.0 (Windows NT 10.0; Win64; x64) AppleWebKit/537.36 (KHTML, like Gecko) Chrome/86.0.4240.111 Safari/537.36" etag="2hppiDO9QdYK8wbSw2Zu" version="13.8.1" type="github">
  <diagram id="N0eYJMWsxyP9w8Tlshib" name="Page-1">
    <mxGraphModel dx="1422" dy="762" grid="1" gridSize="17" guides="1" tooltips="1" connect="1" arrows="1" fold="1" page="1" pageScale="1" pageWidth="827" pageHeight="1169" math="0" shadow="0">
      <root>
        <mxCell id="0" />
        <mxCell id="1" parent="0" />
        <mxCell id="9CvbfLeqGQwXbUeqVK-M-4" value="" style="shape=cylinder3;whiteSpace=wrap;html=1;boundedLbl=1;backgroundOutline=1;size=9;" vertex="1" parent="1">
          <mxGeometry x="380" y="250" width="110" height="180" as="geometry" />
        </mxCell>
        <mxCell id="9CvbfLeqGQwXbUeqVK-M-5" value="" style="verticalLabelPosition=bottom;verticalAlign=top;html=1;shape=mxgraph.basic.cone" vertex="1" parent="1">
          <mxGeometry x="385" y="330" width="100" height="100" as="geometry" />
        </mxCell>
        <mxCell id="9CvbfLeqGQwXbUeqVK-M-8" value="" style="edgeStyle=orthogonalEdgeStyle;rounded=0;orthogonalLoop=1;jettySize=auto;html=1;" edge="1" parent="1" source="9CvbfLeqGQwXbUeqVK-M-6" target="9CvbfLeqGQwXbUeqVK-M-7">
          <mxGeometry relative="1" as="geometry" />
        </mxCell>
        <mxCell id="9CvbfLeqGQwXbUeqVK-M-6" value="" style="shape=internalStorage;whiteSpace=wrap;html=1;backgroundOutline=1;dx=34;dy=0;rotation=85;direction=east;" vertex="1" parent="1">
          <mxGeometry x="119" y="391" width="80" height="80" as="geometry" />
        </mxCell>
        <mxCell id="9CvbfLeqGQwXbUeqVK-M-9" value="" style="edgeStyle=orthogonalEdgeStyle;rounded=0;orthogonalLoop=1;jettySize=auto;html=1;" edge="1" parent="1" source="9CvbfLeqGQwXbUeqVK-M-7" target="9CvbfLeqGQwXbUeqVK-M-5">
          <mxGeometry relative="1" as="geometry" />
        </mxCell>
        <mxCell id="9CvbfLeqGQwXbUeqVK-M-7" value="" style="shape=internalStorage;whiteSpace=wrap;html=1;backgroundOutline=1;dx=34;dy=0;rotation=85;direction=east;" vertex="1" parent="1">
          <mxGeometry x="279" y="391" width="80" height="80" as="geometry" />
        </mxCell>
        <mxCell id="9CvbfLeqGQwXbUeqVK-M-10" value="Text" style="text;html=1;strokeColor=none;fillColor=none;align=center;verticalAlign=middle;whiteSpace=wrap;rounded=0;" vertex="1" parent="1">
          <mxGeometry x="391" y="425" width="40" height="20" as="geometry" />
        </mxCell>
        <mxCell id="9CvbfLeqGQwXbUeqVK-M-11" value="sssss" style="text;html=1;strokeColor=#3700CC;fillColor=#6a00ff;align=center;verticalAlign=middle;whiteSpace=wrap;rounded=0;fontColor=#ffffff;strokeWidth=8;fontStyle=1;fontFamily=Tahoma;fontSize=24;" vertex="1" parent="1">
          <mxGeometry x="394" y="544" width="133" height="68" as="geometry" />
        </mxCell>
        <mxCell id="9CvbfLeqGQwXbUeqVK-M-25" value="" style="html=1;whiteSpace=wrap;shape=isoCube2;backgroundOutline=1;isoAngle=10.961250293681369;strokeWidth=1;fontFamily=Tahoma;fontSize=27;rotation=-15;" vertex="1" parent="1">
          <mxGeometry x="527" y="243" width="187" height="187" as="geometry" />
        </mxCell>
        <mxCell id="9CvbfLeqGQwXbUeqVK-M-26" value="" style="shape=cylinder3;whiteSpace=wrap;html=1;boundedLbl=1;backgroundOutline=1;size=15;strokeWidth=1;fontFamily=Tahoma;fontSize=27;" vertex="1" parent="1">
          <mxGeometry x="170" y="585" width="60" height="80" as="geometry" />
        </mxCell>
        <mxCell id="9CvbfLeqGQwXbUeqVK-M-27" value="" style="shape=cylinder3;whiteSpace=wrap;html=1;boundedLbl=1;backgroundOutline=1;size=15;strokeWidth=1;fontFamily=Tahoma;fontSize=27;" vertex="1" parent="1">
          <mxGeometry x="34" y="187" width="41" height="119" as="geometry" />
        </mxCell>
        <mxCell id="9CvbfLeqGQwXbUeqVK-M-28" value="Text" style="text;html=1;strokeColor=none;fillColor=none;align=center;verticalAlign=middle;whiteSpace=wrap;rounded=0;fontFamily=Tahoma;fontSize=28;fontStyle=7;horizontal=1;" vertex="1" parent="1">
          <mxGeometry x="442" y="68" width="65" height="37" as="geometry" />
        </mxCell>
        <mxCell id="9CvbfLeqGQwXbUeqVK-M-30" value="Title" style="text;strokeColor=none;fillColor=none;html=1;fontSize=24;fontStyle=1;verticalAlign=middle;align=center;" vertex="1" parent="1">
          <mxGeometry x="221" y="130" width="100" height="40" as="geometry" />
        </mxCell>
        <mxCell id="9CvbfLeqGQwXbUeqVK-M-31" value="&lt;table border=&quot;1&quot; width=&quot;100%&quot; height=&quot;100%&quot; style=&quot;width:100%;height:100%;border-collapse:collapse;&quot;&gt;&lt;tr&gt;&lt;td align=&quot;center&quot;&gt;Value 1&lt;/td&gt;&lt;td align=&quot;center&quot;&gt;Value 2&lt;/td&gt;&lt;td align=&quot;center&quot;&gt;Value 3&lt;/td&gt;&lt;/tr&gt;&lt;tr&gt;&lt;td align=&quot;center&quot;&gt;Value 4&lt;/td&gt;&lt;td align=&quot;center&quot;&gt;Value 5&lt;/td&gt;&lt;td align=&quot;center&quot;&gt;Value 6&lt;/td&gt;&lt;/tr&gt;&lt;tr&gt;&lt;td align=&quot;center&quot;&gt;Value 7&lt;/td&gt;&lt;td align=&quot;center&quot;&gt;Value 8&lt;/td&gt;&lt;td align=&quot;center&quot;&gt;Value 9&lt;/td&gt;&lt;/tr&gt;&lt;/table&gt;" style="text;html=1;strokeColor=none;fillColor=none;overflow=fill;fontFamily=Tahoma;fontSize=28;" vertex="1" parent="1">
          <mxGeometry x="578" y="80" width="180" height="140" as="geometry" />
        </mxCell>
        <mxCell id="9CvbfLeqGQwXbUeqVK-M-58" value="" style="edgeStyle=segmentEdgeStyle;endArrow=classic;html=1;fontFamily=Tahoma;fontSize=28;" edge="1" parent="1">
          <mxGeometry width="50" height="50" relative="1" as="geometry">
            <mxPoint x="391" y="458" as="sourcePoint" />
            <mxPoint x="441" y="408" as="targetPoint" />
          </mxGeometry>
        </mxCell>
        <mxCell id="9CvbfLeqGQwXbUeqVK-M-59" value="" style="edgeStyle=segmentEdgeStyle;endArrow=classic;html=1;fontFamily=Tahoma;fontSize=28;" edge="1" parent="1">
          <mxGeometry width="50" height="50" relative="1" as="geometry">
            <mxPoint x="391" y="458" as="sourcePoint" />
            <mxPoint x="441" y="408" as="targetPoint" />
          </mxGeometry>
        </mxCell>
        <mxCell id="9CvbfLeqGQwXbUeqVK-M-60" value="" style="edgeStyle=segmentEdgeStyle;endArrow=classic;html=1;fontFamily=Tahoma;fontSize=28;" edge="1" parent="1" source="9CvbfLeqGQwXbUeqVK-M-26" target="9CvbfLeqGQwXbUeqVK-M-25">
          <mxGeometry width="50" height="50" relative="1" as="geometry">
            <mxPoint x="229" y="541" as="sourcePoint" />
            <mxPoint x="279" y="491" as="targetPoint" />
            <Array as="points">
              <mxPoint x="706" y="516" />
            </Array>
          </mxGeometry>
        </mxCell>
        <mxCell id="9CvbfLeqGQwXbUeqVK-M-61" value="" style="html=1;whiteSpace=wrap;aspect=fixed;shape=isoRectangle;strokeWidth=1;fontFamily=Tahoma;fontSize=28;" vertex="1" parent="1">
          <mxGeometry x="340" y="391" width="150" height="90" as="geometry" />
        </mxCell>
        <mxCell id="9CvbfLeqGQwXbUeqVK-M-62" value="" style="edgeStyle=elbowEdgeStyle;elbow=horizontal;endArrow=classic;html=1;fontFamily=Tahoma;fontSize=28;exitX=0.855;exitY=1;exitDx=0;exitDy=-4.35;exitPerimeter=0;entryX=0.415;entryY=1.054;entryDx=0;entryDy=0;entryPerimeter=0;" edge="1" parent="1" source="9CvbfLeqGQwXbUeqVK-M-27" target="9CvbfLeqGQwXbUeqVK-M-28">
          <mxGeometry width="50" height="50" relative="1" as="geometry">
            <mxPoint x="306" y="250" as="sourcePoint" />
            <mxPoint x="356" y="200" as="targetPoint" />
            <Array as="points">
              <mxPoint x="221" y="149" />
            </Array>
          </mxGeometry>
        </mxCell>
      </root>
    </mxGraphModel>
  </diagram>
</mxfile>
